inDegrees=no
num_controls=7
num_derivatives=13
num_iterations=112
num_multipliers=7
num_parameters=0
num_slacks=7
num_states=26
objective=0.543602
objective_accelerations=0.062055
objective_balance=0.003288
objective_effort=0.047793
objective_height=0.420708
objective_ligament=0.009758
solver_duration=1191.890958
status=Solve_Succeeded
success=true
DataType=double
version=3
OpenSimVersion=4.5
endheader
time	/jointset/ground_pelvis/pelvis_tilt/value	/jointset/ground_pelvis/pelvis_tx/value	/jointset/ground_pelvis/pelvis_ty/value	/jointset/hip_r/hip_flexion_r/value	/jointset/hip_r/hip_adduction_r/value	/jointset/hip_r/hip_rotation_r/value	/jointset/back/lumbar_extension/value	/jointset/patellofemoral_r/patellar_flexion_r/value	/jointset/knee_r/knee_flexion_r/value	/jointset/knee_r/knee_adduction_r/value	/jointset/knee_r/knee_rotation_r/value	/jointset/ankle_r/ankle_angle_r/value	/jointset/subtalar_r/subtalar_angle_r/value	/jointset/ground_pelvis/pelvis_tilt/speed	/jointset/ground_pelvis/pelvis_tx/speed	/jointset/ground_pelvis/pelvis_ty/speed	/jointset/hip_r/hip_flexion_r/speed	/jointset/hip_r/hip_adduction_r/speed	/jointset/hip_r/hip_rotation_r/speed	/jointset/back/lumbar_extension/speed	/jointset/patellofemoral_r/patellar_flexion_r/speed	/jointset/knee_r/knee_flexion_r/speed	/jointset/knee_r/knee_adduction_r/speed	/jointset/knee_r/knee_rotation_r/speed	/jointset/ankle_r/ankle_angle_r/speed	/jointset/subtalar_r/subtalar_angle_r/speed	/forceset/tau_hip_flexion_r	/forceset/tau_hip_adduction_r	/forceset/tau_hip_rotation_r	/forceset/tau_knee_flexion_r	/forceset/tau_ankle_angle_r	/forceset/tau_subtalar_angle_r	/forceset/tau_lumbar_extension	lambda_cid13_p0	lambda_cid14_p0	lambda_cid14_p1	lambda_cid14_p2	lambda_cid14_p3	lambda_cid14_p4	lambda_cid14_p5	/jointset/ground_pelvis/pelvis_tilt/accel	/jointset/ground_pelvis/pelvis_tx/accel	/jointset/ground_pelvis/pelvis_ty/accel	/jointset/hip_r/hip_flexion_r/accel	/jointset/hip_r/hip_adduction_r/accel	/jointset/hip_r/hip_rotation_r/accel	/jointset/back/lumbar_extension/accel	/jointset/patellofemoral_r/patellar_flexion_r/accel	/jointset/knee_r/knee_flexion_r/accel	/jointset/knee_r/knee_adduction_r/accel	/jointset/knee_r/knee_rotation_r/accel	/jointset/ankle_r/ankle_angle_r/accel	/jointset/subtalar_r/subtalar_angle_r/accel	gamma_cid13_p0	gamma_cid14_p0	gamma_cid14_p1	gamma_cid14_p2	gamma_cid14_p3	gamma_cid14_p4	gamma_cid14_p5
0	-0.006498162764700611	0.09625313393204341	0.9427239674225251	0.1762555222360518	-0.2321571901319488	-0.2615163865854223	-0.038598046466844	0.07317863873451169	0.07317863873451017	0.1745322594723422	0.1744140242874051	0.03247278518263602	-0.003458492635556784	0	0	0	0	0	0	0	0	0	0	0	0	0	0.2317619116295256	-0.1590481694865022	-0.04337298870293583	-0.4008621274478354	0.3831519068566496	-0.1457041686344351	-0.1300002240337584	-39.07271676034183	73.29392376084419	-40.59695609277694	-4.317841163070485	-23.59958358191108	-673.8476350197693	55.24492334974843	-2.688281457221228	-1.532933634112882	-0.7891019748671643	11.32684050016206	-0.09702385696597049	3.032055393095542	-5.384523183036396	11.27963698258075	11.27963698257991	-2.84131440392333	0.2500718173098442	3.466051801410885	0.6650124215762382	1.100798844378903e-07	3.828302802387003e-08	-8.280950442917479e-07	2.464318665277301e-07	4.997336456685245e-08	2.308720514365858e-08	-4.123853613261034e-07
0.01	-0.006624127940273788	0.09617877997107321	0.9426859765294331	0.176802305298049	-0.2321611449673684	-0.261355126131049	-0.03887032230375717	0.07372708086908986	0.07372708086910355	0.1743914850436132	0.174412664182433	0.0326432052371207	-0.003425083601469304	-0.02507957008075829	-0.01467976372125218	-0.007581085817375427	0.1087389059386538	-0.0008649058491354635	0.03214764941971147	-0.05402052854813129	0.1092651772903676	0.1092651772903665	-0.02786813102830237	-0.00028251056499421	0.03409814434448401	0.006607530150481246	0.22942217234726	-0.171230677917899	-0.04320280075283655	-0.4021271858261649	0.3854671950859475	-0.1348939632422481	-0.1273708470829139	-39.09120386805585	74.50004061287255	-35.76836074667951	-4.999175543625221	-26.2324934952948	-674.2641446637957	64.78895199043281	-2.40077285780524	-1.406833475614137	-0.7400433475846033	10.55476151327288	-0.0923992730192341	3.290515642160123	-5.345621865531176	10.68644864200971	10.68644864201003	-2.716653872893209	-0.1689121383578761	3.383831940297017	0.6473803194636093	1.434959989771302e-07	1.280949167319109e-08	-1.123069590458706e-06	2.003233407994796e-07	1.032379499443271e-07	-2.423482901195663e-07	-4.594592604783278e-07
0.02	-0.006997484431515624	0.09596336122599389	0.9425726884856854	0.1784179465939416	-0.2321759839261032	-0.2608755099973221	-0.03966976426111674	0.07535547288455456	0.07535547288455444	0.1739806110203887	0.1744081790427363	0.03315503397291783	-0.003327847864341114	-0.0494782631336024	-0.02821295682182787	-0.01505943013116475	0.2137716467795415	-0.002176824663541225	0.06367113586947669	-0.1054332240894477	0.2159899761705338	0.2159899761705344	-0.05401991888098282	-0.0006250069281392455	0.0682817362621622	0.01276534060814299	0.2270824330649797	-0.1834131863493165	-0.04303261280303062	-0.4033922442044549	0.3877824833152386	-0.1240837578500806	-0.1247414701320727	-39.14580859445489	75.80477000209586	-30.94383032733611	-5.655493991649974	-29.07218338186568	-673.1699500005593	74.0825173091439	-2.552106051638374	-1.303619509977611	-0.7685536741499437	10.58560748060884	-0.1864264500200384	2.907222799106293	-4.862956581673429	10.77156130054048	10.77156130054022	-2.498045768798934	0.238074657679681	3.48314131604969	0.5750684830123234	1.769121135163701e-07	-1.266404467748784e-08	-1.418044136625664e-06	1.542148150712291e-07	1.565025353218018e-07	-5.077837853827911e-07	-5.065331596305523e-07
0.03	-0.007611800686849518	0.09561614042943349	0.9423847315124266	0.1810683094287862	-0.2322058785757234	-0.2600872807869493	-0.04097094240111811	0.0780385292079233	0.07803852920791748	0.1733167727805312	0.1744028793711422	0.03400612445618266	-0.00317161045440199	-0.07325091030004742	-0.04125823687088821	-0.0225431838755129	0.3158853097056251	-0.003821027364322224	0.09379939063659092	-0.154492389067445	0.3201102868884373	0.3201102868884531	-0.07851631466832457	-0.0004531787607260818	0.1016384923895235	0.01839523238980645	0.2174767006436634	-0.1881752877217254	-0.04019690121555303	-0.3893231081084241	0.3639801267636692	-0.1108349198856489	-0.1175924819038342	-39.23496804678471	68.7080631528875	-26.51190832920059	-6.271294542524527	-24.14392909282769	-672.083615429277	81.42776521434826	-2.269720338873807	-1.309005893822545	-0.7400717570375727	9.961905432549656	-0.1564333981979697	3.039391213745341	-4.880894229334596	10.15558019786363	10.15558019786608	-2.390935985570571	-0.0959186235130509	3.217291301947055	0.5437078462060335	2.069634608439703e-07	-1.726486273786986e-08	-1.646426480970964e-06	1.819603923252948e-07	1.870914428810327e-07	-6.620279606021542e-07	-5.997445481615502e-07
0.04	-0.00845981867179438	0.09513766210409196	0.9421215798952325	0.1847273408396782	-0.23225281849597	-0.2590030161492626	-0.0427534117455945	0.08174745148655514	0.08174745148655496	0.172414870682447	0.1743987668772793	0.03518185220889387	-0.002961722462553751	-0.09621860905554547	-0.05446446257805666	-0.03009835891822794	0.4155053619893679	-0.005585878788741076	0.1228782213329609	-0.2016914649843091	0.4211631672242757	0.4211631672243083	-0.101632690530419	-0.0003875713847229531	0.1332091901515936	0.02349545698997709	0.2078709682223508	-0.1929373890941251	-0.03736118962801654	-0.3752539720123885	0.3401777702121091	-0.09758608192120619	-0.1104434936756049	-39.35662744855849	61.70031301236797	-22.07575932977761	-6.874804721995329	-19.41245717139442	-669.6467101658991	88.5636647184017	-2.391116369448968	-1.335808641599261	-0.7828379338233196	10.08688535214069	-0.2105561947476046	2.697337984957453	-4.490938769446805	10.15807522412745	10.15807522412751	-2.222041783749476	0.2168304993976691	3.125929642991435	0.4691350467137554	2.369454315280315e-07	-2.143531547267875e-08	-1.873435790227157e-06	2.112287345893052e-07	2.172128106914339e-07	-8.139795312845304e-07	-6.939072251333475e-07
0.05	-0.009534274670832524	0.09452726353586724	0.9417822230940561	0.1893705961546836	-0.2323179968632782	-0.2576345469197363	-0.04499758817248652	0.0864531501183506	0.08645315011835299	0.1712887223341593	0.1743963223966111	0.0366661066051855	-0.002703037191801609	-0.11854945230358	-0.06754346513640166	-0.03780285387871803	0.512643420798913	-0.007476440795923905	0.1506391135166775	-0.2468021199021791	0.5195025707458769	0.5195025707458667	-0.1233319651686494	-0.0001200843570132294	0.1634785711048057	0.028177808109187	0.200849629684485	-0.1794632640017838	-0.0356702342421355	-0.3688491934499524	0.3330403717967014	-0.1046765363020712	-0.1049066287695436	-39.50823298869541	59.29075549067478	-25.61230017001539	-6.270708406338365	-18.14416269139416	-667.5802605051658	80.01696980716127	-2.135578008097585	-1.283134487482983	-0.7688971852074556	9.451926905656192	-0.1825303762418775	2.789071898479404	-4.469873779155254	9.600727026415832	9.600727026409428	-2.104394866705702	-0.07099777468192288	2.9530132575595	0.4579466101969253	2.347620305913129e-07	-3.242237422196028e-08	-1.858346180252582e-06	1.891068405275225e-07	2.281865716896197e-07	-9.132600261606495e-07	-6.808639918071604e-07
0.06	-0.01082834104347511	0.09378823725715285	0.9413648929616658	0.1949701642098409	-0.2324029256851652	-0.2559937473556909	-0.04768262013379695	0.09212801360741468	0.09212801360741499	0.1699534763269078	0.1743960116703772	0.03844816899822424	-0.002399496116722937	-0.1401406837762904	-0.0801900046759926	-0.04569302516098505	0.6067679100202489	-0.009535969704636594	0.1773442882364227	-0.289862571867973	0.6149961386770538	0.6149961386770021	-0.1434522223207146	3.917950511328299e-05	0.1927707895009542	0.03246661785528915	0.1938282911466044	-0.1659891389094466	-0.03397927885630088	-0.3624444148875146	0.3259029733812912	-0.1117669906829405	-0.0993697638634928	-39.68682494581346	56.96231554377744	-29.15972263313524	-5.636222613308998	-17.04340319922839	-664.272912564658	71.24567672782185	-2.243194014384132	-1.249316037848473	-0.8199731981787047	9.484171434498842	-0.2443495750535728	2.486194492163193	-4.080898179031572	9.588908106042624	9.588908106042892	-1.90623828651647	0.1951858662810172	2.930497131578708	0.3904267720922012	2.312242982179298e-07	-4.369644796132488e-08	-1.833062931573552e-06	1.648211470414958e-07	2.383541176641334e-07	-1.010322791529136e-06	-6.633068254157951e-07
0.07000000000000001	-0.01233548311835459	0.09292490269122354	0.9408674502761942	0.2014973990776587	-0.232509278414798	-0.2540929591797706	-0.05078741764304366	0.09874480273001493	0.09874480273001321	0.1684249661389052	0.1743986747597749	0.04051859634932187	-0.002054916877351541	-0.161174352381998	-0.09240146278683474	-0.05384022864103674	0.6981867523986128	-0.01173852573720357	0.2026389675856202	-0.3307728434888469	0.7078786066425752	0.7078786066425782	-0.1620119041134648	0.0004542687976129974	0.2211530968772104	0.03640989051476811	0.186769999835842	-0.1601343973396767	-0.03214115716276084	-0.3571741911954213	0.3182032001494182	-0.1115443961676953	-0.09382757851975125	-39.8892187138049	54.70076454427597	-29.55893667631812	-5.458461375090253	-16.1263067759153	-661.455039700385	68.80299068006278	-2.016423374776603	-1.195696045245822	-0.819004670150259	8.896896738482059	-0.2090216582421623	2.525023392918014	-4.047478679720626	9.065408059784378	9.065408059792402	-1.795419172024564	-0.04110872188120693	2.767897335842649	0.3901090689283236	2.135193286245164e-07	-4.993290620869848e-08	-1.678548189930676e-06	1.446130024426518e-07	2.328642115183135e-07	-1.046679485743575e-06	-6.130347507102702e-07
0.08	-0.0140495558975144	0.09194172647467702	0.940287153406476	0.2089240535890542	-0.2326378193129333	-0.251944440463034	-0.05429159527372027	0.1062759149158653	0.1062759149158631	0.1667179419237007	0.1744043329055737	0.04286800673322086	-0.001672138600174848	-0.1815268246322064	-0.1041583347994371	-0.06226386201033016	0.7866518387360526	-0.01397360340512717	0.2268903963996192	-0.3697385961539316	0.7978607513271962	0.7978607513272523	-0.1791550277610263	0.0006381907854844879	0.24856739606121	0.04010642541635015	0.1797117085250756	-0.1542796557699071	-0.03030303546921375	-0.3519039675033294	0.3105034269175455	-0.1113218016524503	-0.08828539317601379	-40.11184664707856	52.51050265895253	-29.96237369482803	-5.260944186477296	-15.35761550710123	-657.5496320907523	66.17170795295824	-2.10695474328428	-1.158398818200537	-0.8752591760270501	8.89342022631404	-0.2508539021248902	2.277544385123513	-3.691994387873739	9.008843449862564	9.00884344986255	-1.622926657478773	0.1489524053553553	2.736895493127373	0.3410792205128172	1.949003437265851e-07	-5.584435700497588e-08	-1.515695932612712e-06	1.246679255139486e-07	2.263641471711818e-07	-1.079119659238398e-06	-5.606520367586706e-07
0.09	-0.01596457014600011	0.0908432925647859	0.9396209939953979	0.2172220264988159	-0.2327890054286468	-0.2495603523926597	-0.05817498679836196	0.1146936820429845	0.1146936820429887	0.1648467909641822	0.1744126930573029	0.04548712653157624	-0.001253652389807506	-0.201366213512647	-0.1154448312138607	-0.07102355731145037	0.8724504634552431	-0.01625843885913555	0.2497529826768138	-0.4066223815547418	0.8852098560193493	0.88520985601936	-0.1948458943792447	0.0009896139697296324	0.2751032303535718	0.04356298216362724	0.1725881671642173	-0.1533670070206352	-0.02839745971640562	-0.3476792461368821	0.3028269854795652	-0.106351515462081	-0.08268459514246893	-40.35094924610824	50.47779483208716	-28.29256439020386	-5.375384301768224	-14.81892999340084	-654.1687500075652	67.70148367385561	-1.905934545621314	-1.10118749060652	-0.8848716212976885	8.34924504889363	-0.2166950615772414	2.264541712325806	-3.638971533217845	8.525482588124467	8.52548258811766	-1.507998803788306	-0.02832191995170653	2.588957757984483	0.3435484205265322	1.666118712950942e-07	-5.150088968339199e-08	-1.232042806017751e-06	1.377406245567347e-07	2.033310135714531e-07	-1.058886332916934e-06	-4.989634216964906e-07
